<svg width="46" height="109" viewBox="0 0 46 109" fill="none" xmlns="http://www.w3.org/2000/svg">
<g id="arrows">
<path id="top" d="M2.70711 1.29289C2.42111 1.0069 1.99099 0.92134 1.61732 1.07612C1.24364 1.2309 1 1.59554 1 2V19C1 19.2652 1.10536 19.5196 1.29289 19.7071L22.2929 40.7071C22.6834 41.0976 23.3166 41.0976 23.7071 40.7071L44.7071 19.7071C44.8946 19.5196 45 19.2652 45 19V2C45 1.59554 44.7564 1.2309 44.3827 1.07612C44.009 0.92134 43.5789 1.0069 43.2929 1.29289L23 21.5858L2.70711 1.29289Z" fill="#7ED957" stroke="#A3EC54" stroke-width="2" stroke-linejoin="round"/>
<path id="middle" d="M2.70711 34.7929C2.42111 34.5069 1.99099 34.4213 1.61732 34.5761C1.24364 34.7309 1 35.0955 1 35.5V52.5C1 52.7652 1.10536 53.0196 1.29289 53.2071L22.2929 74.2071C22.6834 74.5976 23.3166 74.5976 23.7071 74.2071L44.7071 53.2071C44.8946 53.0196 45 52.7652 45 52.5V35.5C45 35.0955 44.7564 34.7309 44.3827 34.5761C44.009 34.4213 43.5789 34.5069 43.2929 34.7929L23 55.0858L2.70711 34.7929Z" fill="#7ED957" stroke="#A3EC54" stroke-width="2" stroke-linejoin="round"/>
<path id="bottom" d="M2.70711 67.7929C2.42111 67.5069 1.99099 67.4213 1.61732 67.5761C1.24364 67.7309 1 68.0955 1 68.5V85.5C1 85.7652 1.10536 86.0196 1.29289 86.2071L22.2929 107.207C22.6834 107.598 23.3166 107.598 23.7071 107.207L44.7071 86.2071C44.8946 86.0196 45 85.7652 45 85.5V68.5C45 68.0955 44.7564 67.7309 44.3827 67.5761C44.009 67.4213 43.5789 67.5069 43.2929 67.7929L23 88.0858L2.70711 67.7929Z" fill="#7ED957" stroke="#A3EC54" stroke-width="2" stroke-linejoin="round"/>
</g>
</svg>
