<svg width="100" height="59" viewBox="0 0 100 59" fill="none" xmlns="http://www.w3.org/2000/svg">
<g id="url">
<g id="url_2">
<path id="http" d="M11.386 26V12.392L13.564 12.032V16.694C13.804 16.61 14.08 16.538 14.392 16.478C14.716 16.418 15.034 16.388 15.346 16.388C16.102 16.388 16.726 16.496 17.218 16.712C17.722 16.916 18.124 17.21 18.424 17.594C18.724 17.966 18.934 18.416 19.054 18.944C19.186 19.472 19.252 20.06 19.252 20.708V26H17.074V21.05C17.074 20.546 17.038 20.12 16.966 19.772C16.906 19.412 16.798 19.124 16.642 18.908C16.498 18.68 16.3 18.518 16.048 18.422C15.796 18.314 15.484 18.26 15.112 18.26C14.824 18.26 14.53 18.29 14.23 18.35C13.93 18.41 13.708 18.464 13.564 18.512V26H11.386ZM21.7546 14.102L23.9326 13.742V16.586H27.2806V18.404H23.9326V22.238C23.9326 22.994 24.0526 23.534 24.2926 23.858C24.5326 24.182 24.9406 24.344 25.5166 24.344C25.9126 24.344 26.2606 24.302 26.5606 24.218C26.8726 24.134 27.1186 24.056 27.2986 23.984L27.6586 25.712C27.4066 25.82 27.0766 25.928 26.6686 26.036C26.2606 26.156 25.7806 26.216 25.2286 26.216C24.5566 26.216 23.9926 26.126 23.5366 25.946C23.0926 25.766 22.7386 25.508 22.4746 25.172C22.2106 24.824 22.0246 24.41 21.9166 23.93C21.8086 23.438 21.7546 22.88 21.7546 22.256V14.102ZM29.278 14.102L31.456 13.742V16.586H34.804V18.404H31.456V22.238C31.456 22.994 31.576 23.534 31.816 23.858C32.056 24.182 32.464 24.344 33.04 24.344C33.436 24.344 33.784 24.302 34.084 24.218C34.396 24.134 34.642 24.056 34.822 23.984L35.182 25.712C34.93 25.82 34.6 25.928 34.192 26.036C33.784 26.156 33.304 26.216 32.752 26.216C32.08 26.216 31.516 26.126 31.06 25.946C30.616 25.766 30.262 25.508 29.998 25.172C29.734 24.824 29.548 24.41 29.44 23.93C29.332 23.438 29.278 22.88 29.278 22.256V14.102ZM43.1554 21.338C43.1554 20.366 42.9334 19.61 42.4894 19.07C42.0574 18.53 41.3554 18.26 40.3834 18.26C40.1794 18.26 39.9634 18.272 39.7354 18.296C39.5194 18.308 39.3034 18.344 39.0874 18.404V23.786C39.2794 23.918 39.5314 24.044 39.8434 24.164C40.1674 24.272 40.5094 24.326 40.8694 24.326C41.6614 24.326 42.2374 24.056 42.5974 23.516C42.9694 22.976 43.1554 22.25 43.1554 21.338ZM45.3874 21.302C45.3874 22.022 45.2914 22.682 45.0994 23.282C44.9194 23.882 44.6554 24.398 44.3074 24.83C43.9594 25.262 43.5214 25.598 42.9934 25.838C42.4774 26.078 41.8894 26.198 41.2294 26.198C40.7854 26.198 40.3774 26.144 40.0054 26.036C39.6334 25.928 39.3274 25.808 39.0874 25.676V29.33H36.9094V16.892C37.3534 16.772 37.8994 16.658 38.5474 16.55C39.1954 16.442 39.8794 16.388 40.5994 16.388C41.3434 16.388 42.0094 16.502 42.5974 16.73C43.1854 16.958 43.6834 17.288 44.0914 17.72C44.5114 18.14 44.8294 18.656 45.0454 19.268C45.2734 19.868 45.3874 20.546 45.3874 21.302ZM50.0801 18.08C50.0801 18.5 49.9361 18.842 49.6481 19.106C49.3721 19.37 49.0361 19.502 48.6401 19.502C48.2321 19.502 47.8901 19.37 47.6141 19.106C47.3381 18.842 47.2001 18.5 47.2001 18.08C47.2001 17.66 47.3381 17.318 47.6141 17.054C47.8901 16.778 48.2321 16.64 48.6401 16.64C49.0361 16.64 49.3721 16.778 49.6481 17.054C49.9361 17.318 50.0801 17.66 50.0801 18.08ZM50.0801 24.812C50.0801 25.232 49.9361 25.574 49.6481 25.838C49.3721 26.102 49.0361 26.234 48.6401 26.234C48.2321 26.234 47.8901 26.102 47.6141 25.838C47.3381 25.574 47.2001 25.232 47.2001 24.812C47.2001 24.392 47.3381 24.05 47.6141 23.786C47.8901 23.51 48.2321 23.372 48.6401 23.372C49.0361 23.372 49.3721 23.51 49.6481 23.786C49.9361 24.05 50.0801 24.392 50.0801 24.812ZM52.7733 29.33H50.5413L56.6253 11.906H58.8213L52.7733 29.33ZM60.2616 29.33H58.0296L64.1136 11.906H66.3096L60.2616 29.33Z" fill="black"/>
<path id="curves" d="M78 2C78 1.31032 78.0997 0.643933 78.2856 0.0144809C78.0863 0.00487473 77.8846 0 77.6805 0H11C4.92487 0 0 4.92487 0 11V27C0 33.0751 4.92487 38 11 38H48.2068C48.472 38 48.7365 37.9904 49 37.9714V35.965C48.7368 35.9883 48.4722 36 48.2068 36H11C6.02944 36 2 31.9706 2 27V11C2 6.02944 6.02944 2 11 2H77.6805C77.7878 2 77.8943 2.00165 78 2.00491V2Z" fill="black"/>
</g>
<path id="cursor" d="M97.3043 38.1996C98.1601 38.1218 98.5257 37.0722 97.9034 36.4796L72.7865 12.56C72.1498 11.9537 71.0968 12.405 71.0968 13.2842L71.0968 48.6434C71.0968 49.526 72.1569 49.9759 72.7916 49.3626L79.7682 42.6223C80.2615 42.1458 81.0771 42.2959 81.3684 42.9168L87.6718 56.3527C87.9064 56.8527 88.5019 57.0679 89.0019 56.8333L92.6232 55.1344C93.1232 54.8998 93.3383 54.3044 93.1038 53.8044L86.86 40.4957C86.5654 39.8677 86.984 39.1378 87.6748 39.075L97.3043 38.1996Z" stroke="black" stroke-width="3"/>
</g>
</svg>
