<svg width="32" height="37" viewBox="0 0 32 37" fill="none" xmlns="http://www.w3.org/2000/svg">
<path id="mulher-de-negocios" fill-rule="evenodd" clip-rule="evenodd" d="M13.8733 0.225856C10.6116 1.25847 7.85724 4.41133 5.93091 9.31786C4.89544 11.9553 4.41969 14.0055 4.41969 15.8304C4.41969 17.7404 4.7544 18.5214 6.0079 19.5371C6.49285 19.9299 7.32596 20.6705 7.85945 21.1829C8.75832 22.0463 8.89987 22.1205 9.79345 22.1943L10.7575 22.2739L8.51627 23.0089C4.38852 24.3628 2.23615 25.5917 1.51103 27.0083C1.03494 27.9382 0.548975 30.1201 0.249524 32.6723C-0.16865 36.2351 -0.0889334 37 0.700403 37C1.12369 37 1.35364 36.4793 1.35364 35.5205C1.35364 34.3419 1.82888 30.679 2.15167 29.3702C2.69708 27.1587 3.35662 26.453 5.83024 25.4339C7.06892 24.9237 9.81951 23.9268 9.98882 23.9268C10.0389 23.9268 9.96259 24.1054 9.819 24.3237C9.67558 24.5421 8.97021 25.6835 8.25174 26.8604C6.59198 29.5792 6.6034 29.6676 8.62188 29.7354L10.0798 29.7843L11.3396 31.6199C12.0325 32.6295 13.136 34.2455 13.7917 35.2108L14.9839 36.966H16.0172C16.952 36.966 17.0774 36.9229 17.3356 36.5126C17.4923 36.2631 18.6025 34.6281 19.8026 32.8792L21.9846 29.6994H23.4108C25.4054 29.6994 25.4187 29.5885 23.7533 26.8604C23.0349 25.6835 22.3266 24.5376 22.1796 24.314C21.9154 23.912 21.918 23.9086 22.4067 24.0271C22.6787 24.093 23.7733 24.4448 24.8391 24.809C28.2241 25.9653 29.2627 26.6455 29.7148 28.0021C30.1489 29.3051 30.4794 31.6028 30.5935 34.1137C30.7044 36.5496 30.8173 37 31.318 37C31.9848 37 32.0727 36.6081 31.9571 34.1497C31.8305 31.459 31.4726 29.0438 30.9785 27.5474C30.5465 26.2395 29.6797 25.3962 27.9044 24.5565C26.4123 23.8507 23.6123 22.9033 21.7314 22.4678C20.6663 22.2211 20.3548 22.0775 20.2132 21.768C19.969 21.2339 20.1342 21.1362 20.7476 21.4524C21.0327 21.5994 21.519 21.7189 21.828 21.7181C23.0405 21.7145 25.3925 19.8184 26.5399 17.919C27.9644 15.5614 27.9501 14.7803 26.3993 10.2418C25.1293 6.52511 24.2076 4.41472 23.3469 3.25341C22.6538 2.31825 20.9365 1.06118 20.032 0.826885C19.6426 0.726034 18.8259 0.494791 18.2169 0.313124C16.9447 -0.0666792 14.9257 -0.107257 13.8733 0.225856ZM17.9614 1.6853C18.506 1.87206 19.0967 2.02487 19.274 2.02487C19.7373 2.02487 20.5665 2.48141 21.4799 3.23932C22.5576 4.13356 23.5108 6.03529 24.9556 10.1744C26.3774 14.2471 26.4704 14.9809 25.7575 16.4907C24.6277 18.8836 21.8853 21.0347 21.1264 20.1233C21.0176 19.9924 20.7415 19.8386 20.513 19.7814L20.0978 19.6776L20.674 18.7798C21.2467 17.8874 22.1346 15.956 22.1346 15.6025C22.1346 15.501 22.3615 15.1358 22.6388 14.791C23.2878 13.9845 23.6677 12.8962 23.6677 11.8432C23.6677 10.4561 22.9107 9.99767 19.8388 9.52551C18.2961 9.28832 16.2008 8.24654 15.0098 7.12445C13.7527 5.94021 13.3795 5.98487 12.9326 7.37301C12.4425 8.89459 11.3488 10.0812 9.78527 10.7875C9.22316 11.0413 8.70688 11.332 8.63806 11.4333C8.25566 11.9965 8.72033 13.7741 9.50746 14.7585C9.76875 15.0854 10.0757 15.7244 10.1893 16.1786C10.4116 17.0664 11.226 18.7776 11.7847 19.5309C12.0119 19.8371 12.0938 20.1326 12.026 20.4018C11.9305 20.7814 11.8405 20.8106 10.7019 20.8316L9.4802 20.8542L8.11394 19.5892C7.36258 18.8932 6.6901 18.324 6.61958 18.324C6.54923 18.324 6.32626 18.0574 6.12424 17.7316C5.24599 16.3151 5.92904 12.4286 7.73579 8.56148C10.4469 2.75867 14.042 0.341138 17.9614 1.6853ZM15.0919 8.91208C16.5887 10.051 18.2803 10.7257 20.3684 11.0169C21.0365 11.1099 21.7875 11.2636 22.0372 11.3581C22.4515 11.5152 22.4811 11.586 22.3753 12.1682C22.2363 12.9329 21.9476 13.53 21.3993 14.1864C21.1755 14.4545 20.8575 15.0939 20.6926 15.6074C19.844 18.2504 17.4308 21.0378 15.9891 21.0398C15.4789 21.0406 14.2811 20.2902 13.5012 19.481C12.6094 18.5562 11.7823 17.0134 11.4891 15.7282C11.3113 14.9492 11.096 14.44 10.8805 14.2898C10.5232 14.0402 9.87044 12.8852 9.87044 12.5023C9.87044 12.3745 10.2578 12.089 10.7311 11.868C11.7625 11.3865 13.0784 10.1192 13.6372 9.06947C13.8604 8.64994 14.1001 8.30681 14.1697 8.30681C14.2392 8.30681 14.6543 8.57914 15.0919 8.91208ZM15.0119 22.158C15.9431 22.4891 16.9634 22.3534 17.8003 21.7873C18.145 21.5541 18.4545 21.3906 18.4879 21.4238C18.5213 21.4571 18.7783 21.9381 19.0589 22.4926L19.569 23.5008L19.221 24.6901C19.0296 25.3441 18.7221 26.3949 18.5376 27.0253L18.2024 28.1713H13.8026L13.4546 26.9829C13.2634 26.3292 12.9469 25.2484 12.7515 24.5811C12.4202 23.4499 12.4142 23.3263 12.6634 22.756C12.8104 22.4194 13.0087 21.9288 13.1041 21.6658L13.2775 21.1873L13.7771 21.542C14.0518 21.7369 14.6075 22.0142 15.0119 22.158ZM12.4326 28.3583C12.9954 30.3564 13.4964 32.1037 13.5458 32.241C13.6907 32.6424 13.4921 32.3821 12.1025 30.3491L10.788 28.426L9.90332 28.3747C9.41684 28.3464 9.01876 28.2905 9.01876 28.2503C9.01876 28.0262 11.2578 24.574 11.3462 24.6619C11.3808 24.6966 11.8698 26.3599 12.4326 28.3583ZM21.8653 26.3857C22.4819 27.3645 22.9863 28.201 22.9863 28.2445C22.9863 28.2878 22.5882 28.3464 22.1018 28.3747L21.217 28.426L19.9025 30.3491C18.5116 32.3841 18.3152 32.6414 18.4584 32.241C18.5484 31.9896 20.0579 26.6693 20.42 25.3275C20.5272 24.9305 20.6439 24.6059 20.6796 24.6059C20.7152 24.6059 21.2489 25.4068 21.8653 26.3857ZM17.1714 31.8641C16.8065 33.1482 16.4234 34.5232 16.3202 34.9202C16.217 35.3171 16.0739 35.6417 16.0025 35.6417C15.9312 35.6417 15.7881 35.3171 15.6849 34.9202C15.5816 34.5232 15.1986 33.1482 14.8337 31.8641L14.1704 29.5296H17.8347L17.1714 31.8641Z" fill="#7ED957"/>
</svg>
