<svg width="426" height="93" viewBox="0 0 426 93" fill="none" xmlns="http://www.w3.org/2000/svg">
<g id="logotipo">
<g id="creationshub">
<path id="Creations" d="M10.416 57C9.072 57 7.84 56.6827 6.72 56.048C5.63733 55.376 4.76 54.4987 4.088 53.416C3.45333 52.296 3.136 51.064 3.136 49.72V23.96C3.136 22.616 3.45333 21.4027 4.088 20.32C4.76 19.2 5.63733 18.3227 6.72 17.688C7.84 17.016 9.072 16.68 10.416 16.68H43.344V22.728H11.256C10.6587 22.728 10.1547 22.9333 9.744 23.344C9.37067 23.7173 9.184 24.2027 9.184 24.8V48.88C9.184 49.4773 9.37067 49.9813 9.744 50.392C10.1547 50.7653 10.6587 50.952 11.256 50.952H43.344V57H10.416ZM48.9589 57V31.8C48.9589 30.456 49.2949 29.2427 49.9669 28.16C50.6389 27.0773 51.5162 26.2 52.5989 25.528C53.7189 24.856 54.9322 24.52 56.2389 24.52H74.3829V30.568H56.4069C56.0335 30.568 55.6975 30.7173 55.3989 31.016C55.1375 31.2773 55.0069 31.5947 55.0069 31.968V57H48.9589ZM85.3313 57C83.9873 57 82.774 56.664 81.6913 55.992C80.6086 55.32 79.7313 54.4427 79.0593 53.36C78.3873 52.2773 78.0513 51.064 78.0513 49.72V31.8C78.0513 30.456 78.3873 29.2427 79.0593 28.16C79.7313 27.0773 80.6086 26.2 81.6913 25.528C82.774 24.856 83.9873 24.52 85.3313 24.52H103.811C105.155 24.52 106.369 24.856 107.451 25.528C108.571 26.1627 109.449 27.04 110.083 28.16C110.755 29.28 111.091 30.4933 111.091 31.8V43.784H84.0993V49.552C84.0993 49.9253 84.23 50.2613 84.4913 50.56C84.79 50.8213 85.126 50.952 85.4993 50.952H111.091V57H85.3313ZM84.0993 38.128H104.987V31.968C104.987 31.5947 104.857 31.2773 104.595 31.016C104.334 30.7173 104.017 30.568 103.643 30.568H85.4993C85.126 30.568 84.79 30.7173 84.4913 31.016C84.23 31.2773 84.0993 31.5947 84.0993 31.968V38.128ZM124.161 57C122.817 57 121.585 56.664 120.465 55.992C119.382 55.32 118.505 54.4427 117.833 53.36C117.198 52.2773 116.881 51.064 116.881 49.72V37.736H143.817V31.968C143.817 31.5947 143.686 31.2773 143.425 31.016C143.163 30.7173 142.846 30.568 142.473 30.568H116.881V24.52H142.641C143.985 24.52 145.198 24.856 146.281 25.528C147.401 26.1627 148.278 27.04 148.913 28.16C149.585 29.28 149.921 30.4933 149.921 31.8V57H124.161ZM124.329 50.952H143.817V43.392H122.929V49.552C122.929 49.9253 123.059 50.2613 123.321 50.56C123.619 50.8213 123.955 50.952 124.329 50.952ZM163.1 57C161.756 57 160.524 56.664 159.404 55.992C158.321 55.32 157.444 54.4427 156.772 53.36C156.137 52.2773 155.82 51.064 155.82 49.72V14.272H161.868V24.52H175.196V30.568H161.868V49.552C161.868 49.9253 161.998 50.2613 162.26 50.56C162.558 50.8213 162.894 50.952 163.268 50.952H175.196V57H163.1ZM179.717 57V24.52H185.765V57H179.717ZM179.717 19.928V13.88H185.765V19.928H179.717ZM199.027 57C197.683 57 196.469 56.664 195.387 55.992C194.304 55.32 193.427 54.4427 192.755 53.36C192.083 52.2773 191.747 51.064 191.747 49.72V31.8C191.747 30.456 192.083 29.2427 192.755 28.16C193.427 27.0773 194.304 26.2 195.387 25.528C196.469 24.856 197.683 24.52 199.027 24.52H217.507C218.851 24.52 220.064 24.856 221.147 25.528C222.267 26.1627 223.144 27.04 223.779 28.16C224.451 29.28 224.787 30.4933 224.787 31.8V49.72C224.787 51.064 224.451 52.2773 223.779 53.36C223.144 54.4427 222.267 55.32 221.147 55.992C220.064 56.664 218.851 57 217.507 57H199.027ZM199.195 50.952H217.339C217.712 50.952 218.029 50.8213 218.291 50.56C218.552 50.2613 218.683 49.9253 218.683 49.552V31.968C218.683 31.5947 218.552 31.2773 218.291 31.016C218.029 30.7173 217.712 30.568 217.339 30.568H199.195C198.821 30.568 198.485 30.7173 198.187 31.016C197.925 31.2773 197.795 31.5947 197.795 31.968V49.552C197.795 49.9253 197.925 50.2613 198.187 50.56C198.485 50.8213 198.821 50.952 199.195 50.952ZM229.594 57V24.52H255.354C256.698 24.52 257.912 24.856 258.994 25.528C260.114 26.2 260.992 27.0773 261.626 28.16C262.298 29.2427 262.634 30.456 262.634 31.8V57H256.586V31.968C256.586 31.5947 256.437 31.2773 256.138 31.016C255.877 30.7173 255.56 30.568 255.186 30.568H237.042C236.669 30.568 236.333 30.7173 236.034 31.016C235.773 31.2773 235.642 31.5947 235.642 31.968V57H229.594ZM275.148 57C273.804 57 272.59 56.664 271.508 55.992C270.425 55.32 269.548 54.4427 268.876 53.36C268.204 52.2773 267.868 51.064 267.868 49.72V48.88H273.916V49.552C273.916 49.9253 274.046 50.2613 274.308 50.56C274.606 50.8213 274.942 50.952 275.316 50.952H293.46C293.833 50.952 294.15 50.8213 294.412 50.56C294.673 50.2613 294.804 49.9253 294.804 49.552V45.184C294.804 44.8107 294.673 44.4933 294.412 44.232C294.15 43.9333 293.833 43.784 293.46 43.784H275.148C273.804 43.784 272.59 43.4667 271.508 42.832C270.425 42.16 269.548 41.2827 268.876 40.2C268.204 39.08 267.868 37.848 267.868 36.504V31.8C267.868 30.456 268.204 29.2427 268.876 28.16C269.548 27.0773 270.425 26.2 271.508 25.528C272.59 24.856 273.804 24.52 275.148 24.52H293.628C294.972 24.52 296.185 24.856 297.268 25.528C298.388 26.2 299.265 27.0773 299.9 28.16C300.572 29.2427 300.908 30.456 300.908 31.8V32.64H294.804V31.968C294.804 31.5947 294.673 31.2773 294.412 31.016C294.15 30.7173 293.833 30.568 293.46 30.568H275.316C274.942 30.568 274.606 30.7173 274.308 31.016C274.046 31.2773 273.916 31.5947 273.916 31.968V36.336C273.916 36.7093 274.046 37.0453 274.308 37.344C274.606 37.6053 274.942 37.736 275.316 37.736H293.628C294.972 37.736 296.185 38.072 297.268 38.744C298.388 39.3787 299.265 40.256 299.9 41.376C300.572 42.4587 300.908 43.672 300.908 45.016V49.72C300.908 51.064 300.572 52.2773 299.9 53.36C299.265 54.4427 298.388 55.32 297.268 55.992C296.185 56.664 294.972 57 293.628 57H275.148Z" fill="white"/>
<path id="Hub" d="M306.192 57V16.68H312.24V33.816H341.36V16.68H347.464V57H341.36V39.864H312.24V57H306.192ZM360.881 57C359.537 57 358.305 56.664 357.185 55.992C356.102 55.32 355.225 54.4427 354.553 53.36C353.918 52.2773 353.601 51.064 353.601 49.72V24.52H359.649V49.552C359.649 49.9253 359.779 50.2613 360.041 50.56C360.339 50.8213 360.675 50.952 361.049 50.952H379.193C379.566 50.952 379.883 50.8213 380.145 50.56C380.443 50.2613 380.593 49.9253 380.593 49.552V24.52H386.641V49.72C386.641 51.064 386.305 52.2773 385.633 53.36C384.998 54.4427 384.121 55.32 383.001 55.992C381.918 56.664 380.705 57 379.361 57H360.881ZM391.555 57V13.88H397.603V24.52H417.315C418.659 24.52 419.873 24.856 420.955 25.528C422.075 26.2 422.953 27.0773 423.587 28.16C424.259 29.2427 424.595 30.456 424.595 31.8V49.72C424.595 51.064 424.259 52.2773 423.587 53.36C422.953 54.4427 422.075 55.32 420.955 55.992C419.873 56.664 418.659 57 417.315 57H391.555ZM399.003 50.952H417.147C417.521 50.952 417.838 50.8213 418.099 50.56C418.398 50.2613 418.547 49.9253 418.547 49.552V31.968C418.547 31.5947 418.398 31.2773 418.099 31.016C417.838 30.7173 417.521 30.568 417.147 30.568H399.003C398.63 30.568 398.294 30.7173 397.995 31.016C397.734 31.2773 397.603 31.5947 397.603 31.968V49.552C397.603 49.9253 397.734 50.2613 397.995 50.56C398.294 50.8213 398.63 50.952 399.003 50.952Z" fill="#A3EC54"/>
</g>
<g id="solucoes-tec">
<path id="Solu&#195;&#167;&#195;&#181;es Tecnol&#195;&#179;gicas" d="M100.078 88C99.682 88 99.316 87.904 98.98 87.712C98.656 87.52 98.398 87.262 98.206 86.938C98.014 86.602 97.918 86.236 97.918 85.84V85.336H99.376V85.84C99.376 86.032 99.442 86.2 99.574 86.344C99.718 86.476 99.886 86.542 100.078 86.542H108.718C108.91 86.542 109.072 86.476 109.204 86.344C109.348 86.2 109.42 86.032 109.42 85.84V82.942C109.42 82.75 109.348 82.588 109.204 82.456C109.072 82.324 108.91 82.258 108.718 82.258H100.078C99.682 82.258 99.316 82.162 98.98 81.97C98.656 81.766 98.398 81.502 98.206 81.178C98.014 80.854 97.918 80.494 97.918 80.098V77.2C97.918 76.804 98.014 76.444 98.206 76.12C98.398 75.784 98.656 75.52 98.98 75.328C99.316 75.136 99.682 75.04 100.078 75.04H108.718C109.114 75.04 109.474 75.136 109.798 75.328C110.134 75.52 110.398 75.784 110.59 76.12C110.782 76.444 110.878 76.804 110.878 77.2V77.704H109.42V77.2C109.42 77.008 109.348 76.846 109.204 76.714C109.072 76.57 108.91 76.498 108.718 76.498H100.078C99.886 76.498 99.718 76.57 99.574 76.714C99.442 76.846 99.376 77.008 99.376 77.2V80.098C99.376 80.29 99.442 80.452 99.574 80.584C99.718 80.716 99.886 80.782 100.078 80.782H108.718C109.114 80.782 109.474 80.884 109.798 81.088C110.134 81.28 110.398 81.538 110.59 81.862C110.782 82.186 110.878 82.546 110.878 82.942V85.84C110.878 86.236 110.782 86.602 110.59 86.938C110.398 87.262 110.134 87.52 109.798 87.712C109.474 87.904 109.114 88 108.718 88H100.078ZM114.897 88C114.501 88 114.135 87.904 113.799 87.712C113.475 87.508 113.211 87.244 113.007 86.92C112.815 86.584 112.719 86.218 112.719 85.822V79.738C112.719 79.342 112.815 78.982 113.007 78.658C113.211 78.322 113.475 78.058 113.799 77.866C114.135 77.662 114.501 77.56 114.897 77.56H121.161C121.569 77.56 121.935 77.662 122.259 77.866C122.595 78.058 122.859 78.322 123.051 78.658C123.255 78.982 123.357 79.342 123.357 79.738V85.822C123.357 86.218 123.255 86.584 123.051 86.92C122.859 87.244 122.595 87.508 122.259 87.712C121.935 87.904 121.569 88 121.161 88H114.897ZM114.897 86.524H121.161C121.353 86.524 121.515 86.458 121.647 86.326C121.791 86.182 121.863 86.014 121.863 85.822V79.738C121.863 79.546 121.791 79.384 121.647 79.252C121.515 79.108 121.353 79.036 121.161 79.036H114.897C114.705 79.036 114.537 79.108 114.393 79.252C114.261 79.384 114.195 79.546 114.195 79.738V85.822C114.195 86.014 114.261 86.182 114.393 86.326C114.537 86.458 114.705 86.524 114.897 86.524ZM127.026 88C126.63 88 126.264 87.904 125.928 87.712C125.604 87.508 125.34 87.244 125.136 86.92C124.944 86.584 124.848 86.218 124.848 85.822V74.14H126.324V85.822C126.324 86.014 126.39 86.182 126.522 86.326C126.666 86.458 126.834 86.524 127.026 86.524H128.79V88H127.026ZM132.476 88C132.08 88 131.714 87.904 131.378 87.712C131.054 87.508 130.79 87.244 130.586 86.92C130.394 86.584 130.298 86.218 130.298 85.822V77.56H131.774V85.822C131.774 86.014 131.84 86.182 131.972 86.326C132.116 86.458 132.284 86.524 132.476 86.524H138.74C138.932 86.524 139.1 86.458 139.244 86.326C139.388 86.182 139.46 86.014 139.46 85.822V77.56H140.936V85.822C140.936 86.218 140.834 86.584 140.63 86.92C140.438 87.244 140.174 87.508 139.838 87.712C139.514 87.904 139.148 88 138.74 88H132.476ZM144.955 88C144.559 88 144.193 87.904 143.857 87.712C143.533 87.508 143.269 87.244 143.065 86.92C142.873 86.584 142.777 86.218 142.777 85.822V79.738C142.777 79.342 142.873 78.982 143.065 78.658C143.269 78.322 143.533 78.058 143.857 77.866C144.193 77.662 144.559 77.56 144.955 77.56H153.379V79.036H144.955C144.763 79.036 144.595 79.108 144.451 79.252C144.319 79.384 144.253 79.546 144.253 79.738V85.822C144.253 86.014 144.319 86.182 144.451 86.326C144.595 86.458 144.763 86.524 144.955 86.524H153.415V88H144.955ZM147.079 90.502L147.781 87.712H149.203L148.519 90.502H147.079ZM157.471 88C157.075 88 156.709 87.904 156.373 87.712C156.049 87.508 155.785 87.244 155.581 86.92C155.389 86.584 155.293 86.218 155.293 85.822V79.738C155.293 79.342 155.389 78.982 155.581 78.658C155.785 78.322 156.049 78.058 156.373 77.866C156.709 77.662 157.075 77.56 157.471 77.56H163.735C164.143 77.56 164.509 77.662 164.833 77.866C165.169 78.058 165.433 78.322 165.625 78.658C165.829 78.982 165.931 79.342 165.931 79.738V85.822C165.931 86.218 165.829 86.584 165.625 86.92C165.433 87.244 165.169 87.508 164.833 87.712C164.509 87.904 164.143 88 163.735 88H157.471ZM157.471 86.524H163.735C163.927 86.524 164.089 86.458 164.221 86.326C164.365 86.182 164.437 86.014 164.437 85.822V79.738C164.437 79.546 164.365 79.384 164.221 79.252C164.089 79.108 163.927 79.036 163.735 79.036H157.471C157.279 79.036 157.111 79.108 156.967 79.252C156.835 79.384 156.769 79.546 156.769 79.738V85.822C156.769 86.014 156.835 86.182 156.967 86.326C157.111 86.458 157.279 86.524 157.471 86.524ZM162.565 75.814C161.929 75.814 161.197 75.544 160.369 75.004C159.565 74.464 158.845 74.194 158.209 74.194H157.525V73.024H158.569C159.073 73.024 159.739 73.294 160.567 73.834C161.395 74.374 162.103 74.644 162.691 74.644H163.645V75.814H162.565ZM169.934 88C169.538 88 169.172 87.904 168.836 87.712C168.512 87.508 168.248 87.244 168.044 86.92C167.852 86.584 167.756 86.218 167.756 85.822V79.738C167.756 79.342 167.852 78.982 168.044 78.658C168.248 78.322 168.512 78.058 168.836 77.866C169.172 77.662 169.538 77.56 169.934 77.56H176.198C176.606 77.56 176.972 77.662 177.296 77.866C177.632 78.058 177.896 78.322 178.088 78.658C178.292 78.982 178.394 79.342 178.394 79.738V83.518H169.232V85.822C169.232 86.014 169.298 86.182 169.43 86.326C169.574 86.458 169.742 86.524 169.934 86.524H178.394V88H169.934ZM169.232 82.042H176.9V79.738C176.9 79.546 176.828 79.384 176.684 79.252C176.552 79.108 176.39 79.036 176.198 79.036H169.934C169.742 79.036 169.574 79.108 169.43 79.252C169.298 79.384 169.232 79.546 169.232 79.738V82.042ZM182.343 88C181.947 88 181.581 87.904 181.245 87.712C180.921 87.508 180.657 87.244 180.453 86.92C180.261 86.584 180.165 86.218 180.165 85.822V85.678H181.641V85.822C181.641 86.014 181.707 86.182 181.839 86.326C181.983 86.458 182.151 86.524 182.343 86.524H188.607C188.799 86.524 188.961 86.458 189.093 86.326C189.237 86.182 189.309 86.014 189.309 85.822V84.22C189.309 84.028 189.237 83.866 189.093 83.734C188.961 83.59 188.799 83.518 188.607 83.518H182.343C181.947 83.518 181.581 83.422 181.245 83.23C180.921 83.026 180.657 82.762 180.453 82.438C180.261 82.102 180.165 81.736 180.165 81.34V79.738C180.165 79.342 180.261 78.982 180.453 78.658C180.657 78.322 180.921 78.058 181.245 77.866C181.581 77.662 181.947 77.56 182.343 77.56H188.607C189.015 77.56 189.381 77.662 189.705 77.866C190.041 78.058 190.305 78.322 190.497 78.658C190.701 78.982 190.803 79.342 190.803 79.738V79.882H189.309V79.738C189.309 79.546 189.237 79.384 189.093 79.252C188.961 79.108 188.799 79.036 188.607 79.036H182.343C182.151 79.036 181.983 79.108 181.839 79.252C181.707 79.384 181.641 79.546 181.641 79.738V81.34C181.641 81.532 181.707 81.7 181.839 81.844C181.983 81.976 182.151 82.042 182.343 82.042H188.607C189.015 82.042 189.381 82.144 189.705 82.348C190.041 82.54 190.305 82.804 190.497 83.14C190.701 83.464 190.803 83.824 190.803 84.22V85.822C190.803 86.218 190.701 86.584 190.497 86.92C190.305 87.244 190.041 87.508 189.705 87.712C189.381 87.904 189.015 88 188.607 88H182.343ZM202.665 88V76.498H196.905V75.04H209.865V76.498H204.123V88H202.665ZM213.299 88C212.903 88 212.537 87.904 212.201 87.712C211.877 87.508 211.613 87.244 211.409 86.92C211.217 86.584 211.121 86.218 211.121 85.822V79.738C211.121 79.342 211.217 78.982 211.409 78.658C211.613 78.322 211.877 78.058 212.201 77.866C212.537 77.662 212.903 77.56 213.299 77.56H219.563C219.971 77.56 220.337 77.662 220.661 77.866C220.997 78.058 221.261 78.322 221.453 78.658C221.657 78.982 221.759 79.342 221.759 79.738V83.518H212.597V85.822C212.597 86.014 212.663 86.182 212.795 86.326C212.939 86.458 213.107 86.524 213.299 86.524H221.759V88H213.299ZM212.597 82.042H220.265V79.738C220.265 79.546 220.193 79.384 220.049 79.252C219.917 79.108 219.755 79.036 219.563 79.036H213.299C213.107 79.036 212.939 79.108 212.795 79.252C212.663 79.384 212.597 79.546 212.597 79.738V82.042ZM225.41 88C225.014 88 224.648 87.904 224.312 87.712C223.988 87.508 223.724 87.244 223.52 86.92C223.328 86.584 223.232 86.218 223.232 85.822V79.738C223.232 79.342 223.328 78.982 223.52 78.658C223.724 78.322 223.988 78.058 224.312 77.866C224.648 77.662 225.014 77.56 225.41 77.56H233.834V79.036H225.41C225.218 79.036 225.05 79.108 224.906 79.252C224.774 79.384 224.708 79.546 224.708 79.738V85.822C224.708 86.014 224.774 86.182 224.906 86.326C225.05 86.458 225.218 86.524 225.41 86.524H233.87V88H225.41ZM235.802 88V77.56H244.262C244.658 77.56 245.018 77.662 245.342 77.866C245.678 78.058 245.942 78.322 246.134 78.658C246.338 78.982 246.44 79.342 246.44 79.738V88H244.964V79.738C244.964 79.546 244.892 79.384 244.748 79.252C244.616 79.108 244.454 79.036 244.262 79.036H237.998C237.806 79.036 237.638 79.108 237.494 79.252C237.35 79.384 237.278 79.546 237.278 79.738V88H235.802ZM250.196 88C249.8 88 249.434 87.904 249.098 87.712C248.774 87.508 248.51 87.244 248.306 86.92C248.114 86.584 248.018 86.218 248.018 85.822V79.738C248.018 79.342 248.114 78.982 248.306 78.658C248.51 78.322 248.774 78.058 249.098 77.866C249.434 77.662 249.8 77.56 250.196 77.56H256.46C256.868 77.56 257.234 77.662 257.558 77.866C257.894 78.058 258.158 78.322 258.35 78.658C258.554 78.982 258.656 79.342 258.656 79.738V85.822C258.656 86.218 258.554 86.584 258.35 86.92C258.158 87.244 257.894 87.508 257.558 87.712C257.234 87.904 256.868 88 256.46 88H250.196ZM250.196 86.524H256.46C256.652 86.524 256.814 86.458 256.946 86.326C257.09 86.182 257.162 86.014 257.162 85.822V79.738C257.162 79.546 257.09 79.384 256.946 79.252C256.814 79.108 256.652 79.036 256.46 79.036H250.196C250.004 79.036 249.836 79.108 249.692 79.252C249.56 79.384 249.494 79.546 249.494 79.738V85.822C249.494 86.014 249.56 86.182 249.692 86.326C249.836 86.458 250.004 86.524 250.196 86.524ZM262.325 88C261.929 88 261.563 87.904 261.227 87.712C260.903 87.508 260.639 87.244 260.435 86.92C260.243 86.584 260.147 86.218 260.147 85.822V74.14H261.623V85.822C261.623 86.014 261.689 86.182 261.821 86.326C261.965 86.458 262.133 86.524 262.325 86.524H264.089V88H262.325ZM267.739 88C267.343 88 266.977 87.904 266.641 87.712C266.317 87.508 266.053 87.244 265.849 86.92C265.657 86.584 265.561 86.218 265.561 85.822V79.738C265.561 79.342 265.657 78.982 265.849 78.658C266.053 78.322 266.317 78.058 266.641 77.866C266.977 77.662 267.343 77.56 267.739 77.56H274.003C274.411 77.56 274.777 77.662 275.101 77.866C275.437 78.058 275.701 78.322 275.893 78.658C276.097 78.982 276.199 79.342 276.199 79.738V85.822C276.199 86.218 276.097 86.584 275.893 86.92C275.701 87.244 275.437 87.508 275.101 87.712C274.777 87.904 274.411 88 274.003 88H267.739ZM267.739 86.524H274.003C274.195 86.524 274.357 86.458 274.489 86.326C274.633 86.182 274.705 86.014 274.705 85.822V79.738C274.705 79.546 274.633 79.384 274.489 79.252C274.357 79.108 274.195 79.036 274.003 79.036H267.739C267.547 79.036 267.379 79.108 267.235 79.252C267.103 79.384 267.037 79.546 267.037 79.738V85.822C267.037 86.014 267.103 86.182 267.235 86.326C267.379 86.458 267.547 86.524 267.739 86.524ZM270.007 76.516L270.637 74.014H272.059L271.447 76.516H270.007ZM279.769 92.122V90.628H286.285C286.477 90.628 286.639 90.556 286.771 90.412C286.915 90.28 286.987 90.118 286.987 89.926V88H280.021C279.625 88 279.259 87.904 278.923 87.712C278.599 87.508 278.335 87.244 278.131 86.92C277.939 86.584 277.843 86.218 277.843 85.822V79.738C277.843 79.342 277.939 78.982 278.131 78.658C278.335 78.322 278.599 78.058 278.923 77.866C279.259 77.662 279.625 77.56 280.021 77.56H286.285C286.693 77.56 287.059 77.662 287.383 77.866C287.719 78.058 287.983 78.322 288.175 78.658C288.367 78.982 288.463 79.342 288.463 79.738V89.926C288.463 90.334 288.367 90.7 288.175 91.024C287.983 91.36 287.719 91.624 287.383 91.816C287.059 92.02 286.693 92.122 286.285 92.122H279.769ZM280.021 86.524H286.285C286.477 86.524 286.639 86.458 286.771 86.326C286.915 86.182 286.987 86.014 286.987 85.822V79.738C286.987 79.546 286.915 79.384 286.771 79.252C286.639 79.108 286.477 79.036 286.285 79.036H280.021C279.829 79.036 279.661 79.108 279.517 79.252C279.385 79.384 279.319 79.546 279.319 79.738V85.822C279.319 86.014 279.385 86.182 279.517 86.326C279.661 86.458 279.829 86.524 280.021 86.524ZM290.329 88V77.56H291.805V88H290.329ZM290.329 75.616V74.14H291.805V75.616H290.329ZM295.969 88C295.573 88 295.207 87.904 294.871 87.712C294.547 87.508 294.283 87.244 294.079 86.92C293.887 86.584 293.791 86.218 293.791 85.822V79.738C293.791 79.342 293.887 78.982 294.079 78.658C294.283 78.322 294.547 78.058 294.871 77.866C295.207 77.662 295.573 77.56 295.969 77.56H304.393V79.036H295.969C295.777 79.036 295.609 79.108 295.465 79.252C295.333 79.384 295.267 79.546 295.267 79.738V85.822C295.267 86.014 295.333 86.182 295.465 86.326C295.609 86.458 295.777 86.524 295.969 86.524H304.429V88H295.969ZM308.503 88C308.107 88 307.741 87.904 307.405 87.712C307.081 87.508 306.817 87.244 306.613 86.92C306.421 86.584 306.325 86.218 306.325 85.822V82.042H315.469V79.738C315.469 79.546 315.397 79.384 315.253 79.252C315.121 79.108 314.959 79.036 314.767 79.036H306.325V77.56H314.767C315.175 77.56 315.541 77.662 315.865 77.866C316.201 78.058 316.465 78.322 316.657 78.658C316.861 78.982 316.963 79.342 316.963 79.738V88H308.503ZM308.503 86.524H315.469V83.518H307.801V85.822C307.801 86.014 307.867 86.182 307.999 86.326C308.143 86.458 308.311 86.524 308.503 86.524ZM320.577 88C320.181 88 319.815 87.904 319.479 87.712C319.155 87.508 318.891 87.244 318.687 86.92C318.495 86.584 318.399 86.218 318.399 85.822V85.678H319.875V85.822C319.875 86.014 319.941 86.182 320.073 86.326C320.217 86.458 320.385 86.524 320.577 86.524H326.841C327.033 86.524 327.195 86.458 327.327 86.326C327.471 86.182 327.543 86.014 327.543 85.822V84.22C327.543 84.028 327.471 83.866 327.327 83.734C327.195 83.59 327.033 83.518 326.841 83.518H320.577C320.181 83.518 319.815 83.422 319.479 83.23C319.155 83.026 318.891 82.762 318.687 82.438C318.495 82.102 318.399 81.736 318.399 81.34V79.738C318.399 79.342 318.495 78.982 318.687 78.658C318.891 78.322 319.155 78.058 319.479 77.866C319.815 77.662 320.181 77.56 320.577 77.56H326.841C327.249 77.56 327.615 77.662 327.939 77.866C328.275 78.058 328.539 78.322 328.731 78.658C328.935 78.982 329.037 79.342 329.037 79.738V79.882H327.543V79.738C327.543 79.546 327.471 79.384 327.327 79.252C327.195 79.108 327.033 79.036 326.841 79.036H320.577C320.385 79.036 320.217 79.108 320.073 79.252C319.941 79.384 319.875 79.546 319.875 79.738V81.34C319.875 81.532 319.941 81.7 320.073 81.844C320.217 81.976 320.385 82.042 320.577 82.042H326.841C327.249 82.042 327.615 82.144 327.939 82.348C328.275 82.54 328.539 82.804 328.731 83.14C328.935 83.464 329.037 83.824 329.037 84.22V85.822C329.037 86.218 328.935 86.584 328.731 86.92C328.539 87.244 328.275 87.508 327.939 87.712C327.615 87.904 327.249 88 326.841 88H320.577Z" fill="white"/>
<rect id="trace-left" y="80" width="93" height="4" fill="white"/>
<rect id="trace-right" x="334" y="80" width="92" height="4" fill="white"/>
</g>
</g>
</svg>
